<svg width="25" height="31" viewBox="0 0 25 31" fill="none" xmlns="http://www.w3.org/2000/svg">
<path d="M12.9728 0.298506C12.7066 0.123494 12.271 0.120041 12.0014 0.291581C10.4363 1.28632 9.42457 2.28218 8.41718 3.27372C4.27388 7.35184 3.97 12.013 4.99084 16.7605L0.808116 20.8774C0.152609 21.5239 -0.149859 22.7587 0.133077 23.6346L2.05247 29.5534C2.12427 29.749 2.2336 29.9287 2.37432 30.0824C2.62588 30.3378 2.96856 30.4828 3.32703 30.4856C3.68549 30.4884 4.0304 30.3488 4.28591 30.0973L8.45241 25.9964L8.43799 27.786C8.43066 28.691 9.19071 29.5941 10.2256 29.6021L14.2797 29.6344C15.1694 29.6427 16.09 28.8921 16.0969 27.8457L16.1113 26.0561L20.2136 30.2239C20.4651 30.4793 20.8078 30.6244 21.1663 30.6272C21.5248 30.63 21.8697 30.4903 22.1252 30.2389C22.2682 30.0873 22.3804 29.9093 22.4555 29.7149L24.4669 23.8324C24.7658 22.9616 24.484 21.7216 23.8377 21.065L19.712 16.8734C20.7962 12.1467 20.5682 7.46447 16.5116 3.34304C15.5198 2.32779 14.5241 1.31625 12.9728 0.298506ZM13.9956 11.0581C13.6781 11.3706 13.275 11.5818 12.8373 11.6652C12.3997 11.7485 11.9472 11.7002 11.537 11.5264C11.1268 11.3526 10.7773 11.0611 10.5328 10.6886C10.2883 10.3162 10.1597 9.87968 10.1633 9.43419C10.1669 8.9887 10.3025 8.55428 10.553 8.18585C10.8034 7.81743 11.1575 7.53154 11.5705 7.36435C11.9834 7.19715 12.4366 7.15616 12.8729 7.24655C13.3091 7.33693 13.7088 7.55465 14.0213 7.87215C14.4401 8.29817 14.6727 8.87305 14.6679 9.47045C14.6631 10.0679 14.4213 10.6389 13.9956 11.0581Z" fill="white"/>
</svg>
