<svg width="110" height="96" viewBox="0 0 110 96" fill="none" xmlns="http://www.w3.org/2000/svg">
<path d="M63.6892 37.7625C63.6892 33.6187 60.7101 31.3313 55.4774 31.3313H45.8524V44.6813H53.9688C60.2326 44.6625 63.6892 42.1875 63.6892 37.7625ZM98.7326 35.3625C96.9184 29.5688 96.651 22.4625 96.8611 16.9688C97.0712 11.25 92.526 6 86.4149 6H23.6233C17.4931 6 12.967 11.2688 13.1771 16.9688C13.3681 22.4625 13.1198 29.5688 11.3056 35.3625C9.47222 41.175 6.39757 44.85 1.33681 45.3187V50.6625C6.37847 51.1313 9.47222 54.8062 11.3056 60.6187C13.1198 66.4125 13.3872 73.5187 13.1771 79.0125C12.967 84.7312 17.5122 89.9812 23.6233 89.9812H86.3958C92.526 89.9812 97.0521 84.7125 96.842 79.0125C96.651 73.5187 96.8993 66.4125 98.7135 60.6187C100.547 54.8062 103.622 51.1313 108.663 50.6625V45.3187C103.641 44.85 100.547 41.175 98.7326 35.3625ZM57.3299 70.3313H38.6337V25.65H57.2344C65.5035 25.65 70.9271 30.0375 70.9271 36.7875C70.9271 41.5312 67.2795 45.7687 62.6198 46.5V46.7438C68.9601 47.4188 73.2188 51.7313 73.2188 57.675C73.2188 65.5688 67.2413 70.3313 57.3299 70.3313ZM55.4201 49.95H45.8524V64.65H55.8403C62.3715 64.65 65.8281 62.0812 65.8281 57.2437C65.8281 52.425 62.276 49.95 55.4201 49.95Z" fill="white"/>
</svg>
