<svg width="23" height="22" viewBox="0 0 23 22" fill="none" xmlns="http://www.w3.org/2000/svg">
<path d="M19.4062 13.75H17.9688C17.7781 13.75 17.5953 13.8224 17.4605 13.9514C17.3257 14.0803 17.25 14.2552 17.25 14.4375V19.25H2.875V5.5H9.34375C9.53437 5.5 9.71719 5.42757 9.85198 5.29864C9.98677 5.1697 10.0625 4.99484 10.0625 4.8125V3.4375C10.0625 3.25516 9.98677 3.0803 9.85198 2.95136C9.71719 2.82243 9.53437 2.75 9.34375 2.75H2.15625C1.58438 2.75 1.03593 2.9673 0.631551 3.35409C0.227176 3.74089 0 4.26549 0 4.8125L0 19.9375C0 20.4845 0.227176 21.0091 0.631551 21.3959C1.03593 21.7827 1.58438 22 2.15625 22H17.9688C18.5406 22 19.0891 21.7827 19.4935 21.3959C19.8978 21.0091 20.125 20.4845 20.125 19.9375V14.4375C20.125 14.2552 20.0493 14.0803 19.9145 13.9514C19.7797 13.8224 19.5969 13.75 19.4062 13.75ZM21.9219 0H16.1719C15.2119 0 14.7321 1.11332 15.4082 1.76172L17.0133 3.29699L6.06445 13.7659C5.96394 13.8617 5.88419 13.9755 5.82978 14.1009C5.77536 14.2262 5.74735 14.3606 5.74735 14.4964C5.74735 14.6321 5.77536 14.7665 5.82978 14.8918C5.88419 15.0172 5.96394 15.131 6.06445 15.2268L7.08283 16.1992C7.18299 16.2954 7.30201 16.3716 7.43306 16.4237C7.56411 16.4757 7.70461 16.5025 7.8465 16.5025C7.9884 16.5025 8.1289 16.4757 8.25995 16.4237C8.391 16.3716 8.51001 16.2954 8.61018 16.1992L19.5536 5.72859L21.1582 7.26172C21.832 7.90625 23 7.45508 23 6.53125V1.03125C23 0.757746 22.8864 0.495443 22.6842 0.302046C22.482 0.108649 22.2078 0 21.9219 0V0Z" fill="#333333"/>
</svg>
