<svg width="112" height="128" viewBox="0 0 112 128" fill="none" xmlns="http://www.w3.org/2000/svg">
<g clip-path="url(#clip0_13_191)">
<path d="M109.887 59.0125L61 10.1125C59.6466 8.76038 57.8118 8.00085 55.8987 8.00085C53.9857 8.00085 52.1508 8.76038 50.7975 10.1125L40.6325 20.27L53.5125 33.15C60.2775 30.865 66.6825 37.3425 64.36 44.07L76.775 56.485C85.3325 53.535 92.07 64.235 85.6425 70.6575C79.02 77.28 68.09 69.94 71.6425 61.3225L60.055 49.75V80.2125C66.38 83.3475 65.62 90.675 62.325 93.9625C60.7151 95.5714 58.5322 96.4752 56.2562 96.4752C53.9802 96.4752 51.7973 95.5714 50.1875 93.9625C45.795 89.5625 47.42 82.235 53 79.9625V49.2125C47.8 47.085 46.85 41.5275 48.34 37.9625L35.6425 25.25L2.11249 58.785C0.759732 60.138 -0.000213623 61.973 -0.000213623 63.8863C-0.000213623 65.7995 0.759732 67.6345 2.11249 68.9875L51.015 117.887C52.3679 119.239 54.2023 119.999 56.115 119.999C58.0276 119.999 59.862 119.239 61.215 117.887L109.887 69.215C111.24 67.862 112 66.027 112 64.1138C112 62.2005 111.24 60.3655 109.887 59.0125Z" fill="white"/>
</g>
<defs>
<clipPath id="clip0_13_191">
<rect width="112" height="128" fill="white"/>
</clipPath>
</defs>
</svg>
