<svg width="23" height="23" viewBox="0 0 23 23" fill="none" xmlns="http://www.w3.org/2000/svg">
<path d="M7.69294 17.845C7.69294 17.9348 7.58629 18.0066 7.45181 18.0066C7.29879 18.0201 7.19214 17.9482 7.19214 17.845C7.19214 17.7552 7.29879 17.6833 7.43327 17.6833C7.57238 17.6698 7.69294 17.7417 7.69294 17.845ZM6.25081 17.6429C6.21835 17.7327 6.31109 17.836 6.4502 17.8629C6.57077 17.9078 6.70988 17.8629 6.7377 17.7731C6.76552 17.6833 6.67742 17.58 6.53831 17.5396C6.41774 17.5082 6.28327 17.5531 6.25081 17.6429ZM8.3004 17.5666C8.16593 17.598 8.07318 17.6833 8.0871 17.7866C8.10101 17.8764 8.22157 17.9348 8.36069 17.9033C8.49516 17.8719 8.5879 17.7866 8.57399 17.6968C8.56008 17.6115 8.43488 17.5531 8.3004 17.5666ZM11.3516 0.359238C4.91996 0.359238 0 5.08766 0 11.3159C0 16.2958 3.23669 20.5572 7.85988 22.057C8.45343 22.1603 8.6621 21.8055 8.6621 21.5137C8.6621 21.2352 8.64819 19.6995 8.64819 18.7565C8.64819 18.7565 5.40222 19.4301 4.72056 17.4184C4.72056 17.4184 4.19194 16.1117 3.43145 15.7749C3.43145 15.7749 2.36956 15.0699 3.50565 15.0834C3.50565 15.0834 4.66028 15.1732 5.29556 16.2419C6.31109 17.9752 8.0129 17.4768 8.67601 17.1804C8.78266 16.4619 9.08407 15.9635 9.41794 15.6671C6.82581 15.3887 4.21048 15.025 4.21048 10.7052C4.21048 9.47032 4.5629 8.85064 5.30484 8.06032C5.18427 7.76845 4.79012 6.56501 5.4254 5.01132C6.39456 4.71944 8.625 6.22374 8.625 6.22374C9.55242 5.97227 10.5494 5.84205 11.5371 5.84205C12.5248 5.84205 13.5218 5.97227 14.4492 6.22374C14.4492 6.22374 16.6796 4.71495 17.6488 5.01132C18.2841 6.5695 17.8899 7.76845 17.7694 8.06032C18.5113 8.85513 18.9657 9.47481 18.9657 10.7052C18.9657 15.0385 16.2345 15.3842 13.6423 15.6671C14.069 16.0219 14.4306 16.6954 14.4306 17.7507C14.4306 19.2639 14.4167 21.1365 14.4167 21.5047C14.4167 21.7965 14.63 22.1513 15.219 22.048C19.856 20.5572 23 16.2958 23 11.3159C23 5.08766 17.7833 0.359238 11.3516 0.359238ZM4.50726 15.8467C4.44698 15.8916 4.46089 15.9949 4.53972 16.0802C4.61391 16.1521 4.72056 16.1835 4.78085 16.1251C4.84113 16.0802 4.82722 15.977 4.74839 15.8916C4.67419 15.8198 4.56754 15.7884 4.50726 15.8467ZM4.00645 15.483C3.97399 15.5414 4.02036 15.6132 4.1131 15.6581C4.1873 15.703 4.28004 15.6896 4.3125 15.6267C4.34496 15.5683 4.29859 15.4965 4.20585 15.4516C4.1131 15.4246 4.03891 15.4381 4.00645 15.483ZM5.50887 17.0816C5.43468 17.14 5.4625 17.2747 5.56915 17.36C5.67581 17.4633 5.81028 17.4768 5.87056 17.4049C5.93085 17.3465 5.90302 17.2118 5.81028 17.1265C5.70827 17.0232 5.56915 17.0098 5.50887 17.0816ZM4.98024 16.4215C4.90605 16.4664 4.90605 16.5832 4.98024 16.6864C5.05444 16.7897 5.17964 16.8346 5.23992 16.7897C5.31411 16.7313 5.31411 16.6146 5.23992 16.5113C5.175 16.408 5.05444 16.3631 4.98024 16.4215Z" fill="black"/>
</svg>
