<svg width="555" height="410" viewBox="0 0 555 410" fill="none" xmlns="http://www.w3.org/2000/svg">
<path d="M505.263 351.302C587.051 299.615 531.214 171.209 429.934 143.985C344.813 121.104 295.997 28.7815 201.057 38.7135C106.118 48.6454 -7.31225 239.583 156.815 358.702C242.817 414.32 403.028 415.912 505.263 351.302Z" stroke="black"/>
<path d="M486.681 260.17C554.601 197.291 473.915 103.182 370.681 104.672C283.919 105.924 217.557 40.3384 128.218 71.4141C38.8802 102.49 -30.3169 289.53 152.699 349.903C247.173 375.846 401.78 338.769 486.681 260.17Z" fill="#2969E2" fill-opacity="0.4"/>
<path d="M483.067 339.848C571.313 300.775 531.803 188.343 434.082 159.199C351.953 134.706 314.885 53.3531 218.792 56.1615C122.698 58.9698 -14.7944 214.502 134.064 325.466C212.926 377.833 372.76 388.689 483.067 339.848Z" fill="#005DE9" fill-opacity="0.8"/>
</svg>
