<svg width="150" height="151" viewBox="0 0 150 151" fill="none" xmlns="http://www.w3.org/2000/svg">
<path d="M0 0.6875V150.312H150V0.6875H0ZM81.6295 117.382C81.6295 131.943 73.058 138.59 60.5692 138.59C49.2857 138.59 42.7567 132.778 39.4085 125.731L50.8929 118.818C53.1027 122.725 55.1116 126.032 59.9665 126.032C64.5871 126.032 67.5335 124.228 67.5335 117.181V69.3881H81.6295V117.382ZM114.978 138.59C101.886 138.59 93.4152 132.378 89.2969 124.228L100.781 117.615C103.795 122.525 107.746 126.165 114.676 126.165C120.502 126.165 124.252 123.26 124.252 119.219C124.252 114.409 120.435 112.706 113.973 109.867L110.458 108.364C100.279 104.056 93.5491 98.6117 93.5491 87.1561C93.5491 76.6021 101.618 68.5865 114.174 68.5865C123.147 68.5865 129.576 71.6926 134.196 79.8418L123.214 86.8555C120.804 82.5471 118.192 80.8438 114.141 80.8438C110.022 80.8438 107.411 83.4488 107.411 86.8555C107.411 91.0637 110.022 92.767 116.083 95.4055L119.598 96.9084C131.585 102.018 138.315 107.262 138.315 119.018C138.315 131.643 128.337 138.59 114.978 138.59Z" fill="#C1C1C1"/>
</svg>
