<svg width="22" height="24" viewBox="0 0 22 24" fill="none" xmlns="http://www.w3.org/2000/svg">
<path d="M20.4286 0.625H1.56652C0.702232 0.625 0 1.36133 0 2.26523V21.7348C0 22.6387 0.702232 23.375 1.56652 23.375H20.4286C21.2929 23.375 22 22.6387 22 21.7348V2.26523C22 1.36133 21.2929 0.625 20.4286 0.625ZM6.64911 20.125H3.38839V9.26797H6.65402V20.125H6.64911ZM5.01875 7.78516C3.97277 7.78516 3.12812 6.90664 3.12812 5.83008C3.12812 4.75352 3.97277 3.875 5.01875 3.875C6.05982 3.875 6.90937 4.75352 6.90937 5.83008C6.90937 6.91172 6.06473 7.78516 5.01875 7.78516ZM18.8719 20.125H15.6112V14.8438C15.6112 13.5844 15.5866 11.9645 13.917 11.9645C12.2179 11.9645 11.9576 13.3355 11.9576 14.7523V20.125H8.69688V9.26797H11.825V10.7508H11.8692C12.3062 9.89766 13.3719 8.99883 14.958 8.99883C18.258 8.99883 18.8719 11.2484 18.8719 14.1734V20.125Z" fill="black"/>
</svg>
