<svg width="27" height="21" viewBox="0 0 27 21" fill="none" xmlns="http://www.w3.org/2000/svg">
<path d="M26.4885 7.06172C26.6941 6.89824 27 7.05117 27 7.30957V18.0938C27 19.4912 25.8662 20.625 24.4688 20.625H2.53125C1.13379 20.625 0 19.4912 0 18.0938V7.31484C0 7.05117 0.300586 6.90352 0.511523 7.06699C1.69277 7.98457 3.25898 9.15 8.63789 13.0576C9.75059 13.8697 11.6279 15.5783 13.5 15.5678C15.3826 15.5836 17.2969 13.8381 18.3674 13.0576C23.7463 9.15 25.3072 7.9793 26.4885 7.06172ZM13.5 13.875C14.7234 13.8961 16.4848 12.3352 17.3707 11.6918C24.3686 6.61348 24.9012 6.17051 26.5148 4.90488C26.8207 4.66758 27 4.29844 27 3.9082V2.90625C27 1.50879 25.8662 0.375 24.4688 0.375H2.53125C1.13379 0.375 0 1.50879 0 2.90625V3.9082C0 4.29844 0.179297 4.6623 0.485156 4.90488C2.09883 6.16523 2.63145 6.61348 9.6293 11.6918C10.5152 12.3352 12.2766 13.8961 13.5 13.875Z" fill="black"/>
</svg>
